<svg version="1.0" fill="#fff" xmlns="http://www.w3.org/2000/svg" width="225.333" height="225.333" viewBox="0 0 169 169"><path d="M21.5 1.1C12.2 3.3 3.1 12.8 1 22.5c-.7 3.4-1 25.2-.8 65l.3 60 2.3 4.6c2.9 5.9 8.2 11.2 14.1 14.1l4.6 2.3h126l4.6-2.3c5.9-2.9 11.2-8.2 14.1-14.1 2.3-4.5 2.3-5.3 2.3-37.7 0-31.8-.1-33.3-2-35.4-2.9-3.3-6.2-4.2-10.1-3-6.1 2-6.4 4-6.4 38.1v30.3l-2.7 2.8-2.7 2.8H24.4l-2.7-2.8-2.7-2.8V24.6l2.7-2.8 2.7-2.8h44.1c29.8 0 45.2-.4 47.4-1.1 3.1-1.1 6.1-5.2 6.1-8.4 0-2.9-2.8-7.1-5.5-8.3-3.2-1.5-88.7-1.5-95-.1z"/><path d="M154.5 20.9c-1.6 1-18.1 17-36.5 35.5L84.6 90 72.4 78C61.5 67.1 60 66 56.7 66c-4.8 0-8.6 3.4-9.4 8.3l-.6 3.8L63.6 95c16.2 16.4 17 17 20.9 17 4 0 4.5-.5 43.7-39.8 21.8-21.8 39.9-40.7 40.3-42 1-3.3-1.3-8-4.6-9.7-3.7-2-5.8-1.9-9.4.4z"/></svg>