<?xml version="1.0" standalone="no"?>
<!DOCTYPE svg PUBLIC "-//W3C//DTD SVG 20010904//EN"
 "http://www.w3.org/TR/2001/REC-SVG-20010904/DTD/svg10.dtd">
<svg version="1.0" xmlns="http://www.w3.org/2000/svg"
 width="169.000000pt" height="169.000000pt" viewBox="0 0 169.000000 169.000000"
 preserveAspectRatio="xMidYMid meet">
<metadata>
Created by potrace 1.16, written by Peter Selinger 2001-2019
</metadata>
<g transform="translate(0.000000,169.000000) scale(0.100000,-0.100000)"
fill="#000000" stroke="none">
<path d="M215 1679 c-93 -22 -184 -117 -205 -214 -7 -34 -10 -252 -8 -650 l3
-600 23 -46 c29 -59 82 -112 141 -141 l46 -23 630 0 630 0 46 23 c59 29 112
82 141 141 23 45 23 53 23 377 0 318 -1 333 -20 354 -29 33 -62 42 -101 30
-61 -20 -64 -40 -64 -381 l0 -303 -27 -28 -27 -28 -601 0 -601 0 -27 28 -27
28 0 599 0 599 27 28 27 28 441 0 c298 0 452 4 474 11 31 11 61 52 61 84 0 29
-28 71 -55 83 -32 15 -887 15 -950 1z"/>
<path d="M1545 1481 c-16 -10 -181 -170 -365 -355 l-334 -336 -122 120 c-109
109 -124 120 -157 120 -48 0 -86 -34 -94 -83 l-6 -38 169 -169 c162 -164 170
-170 209 -170 40 0 45 5 437 398 218 218 399 407 403 420 10 33 -13 80 -46 97
-37 20 -58 19 -94 -4z"/>
</g>
</svg>
